# xmcd
#
# Track frame offsets: 
#        183
#        19350
#        31345
#        51305
#        65818
#        88605
#        106515
#        128505
#        148183
#
# Disc length: 2332 seconds
#
# Revision: 3
# Processed by: cddbd v1.5.2PL0 Copyright (c) Steve Scherf et al.
# Submitted via: ExactAudioCopyFreeDBPlugin 1.0
#
DISCID=79091a09
DTITLE=John Mayall - Bluesbreakers
DYEAR=1997
DGENRE=Blues
TTITLE0=John Lee Boogie
TTITLE1=Lost and Gone
TTITLE2=Road Show
TTITLE3=Why Worry
TTITLE4=Baby What You Want Me To Do
TTITLE5=Mama, Talk To Your Daughter
TTITLE6=A Big Man
TTITLE7=Reaching For a Mountain
TTITLE8=Mexico City
EXTD=
EXTT0=
EXTT1=
EXTT2=
EXTT3=
EXTT4=
EXTT5=
EXTT6=
EXTT7=
EXTT8=
PLAYORDER=
